<?xml version="1.0" encoding="UTF-8"?>
<svg version="1.1" xmlns="http://www.w3.org/2000/svg" width="500" height="500">
<path d="M0 0 C0.6487207 0.44005371 1.29744141 0.88010742 1.96582031 1.33349609 C3.67851878 2.50663016 5.34377723 3.74839874 7 5 C7 5.66 7 6.32 7 7 C7.58483154 7.26176025 8.16966309 7.52352051 8.7722168 7.79321289 C19.34097102 13.51829257 28.20607587 25.81367453 34 36 C35.10354969 37.64634447 36.2075475 39.29241785 37.32128906 40.93188477 C57.12473793 70.4278667 64.1075109 109.68286181 57.54907227 144.43310547 C57.07593805 146.63487025 56.54919144 148.81594281 56 151 C55.76893555 151.93005859 55.53787109 152.86011719 55.29980469 153.81835938 C51.9272765 167.02848865 47.74662407 179.14482108 41 191 C40.49726563 191.91523438 39.99453125 192.83046875 39.4765625 193.7734375 C33.3468113 204.50896861 25.46246297 214.03605774 17 223 C16.42765625 223.61359375 15.8553125 224.2271875 15.265625 224.859375 C-10.51404465 251.6211273 -47.02638723 266.43579982 -83.95703125 267.16650391 C-124.20425219 267.55628555 -160.85751942 251.35404974 -190 224 C-196.50661049 217.61440253 -202.05906819 210.6482917 -207 203 C-207.64710938 202.00226563 -208.29421875 201.00453125 -208.9609375 199.9765625 C-222.47356827 178.59450691 -232.04204107 153.88504446 -232.203125 128.2578125 C-232.20882507 127.53117401 -232.21452515 126.80453552 -232.22039795 126.05587769 C-232.22979519 124.5213158 -232.23636079 122.98673421 -232.24023438 121.45214844 C-232.2498295 119.16562941 -232.28085565 116.88005456 -232.3125 114.59375 C-232.55023146 81.78990703 -220.6415207 47.19797289 -198.09619141 22.95263672 C-196.4215759 21.2736659 -194.723292 19.62872109 -193 18 C-192.21625 17.21625 -191.4325 16.4325 -190.625 15.625 C-189.75875 14.75875 -188.8925 13.8925 -188 13 C-187.4121875 12.35417969 -186.824375 11.70835937 -186.21875 11.04296875 C-179.62904695 4.02296792 -172.13505785 -0.96924539 -164 -6 C-163.12335693 -6.54769043 -163.12335693 -6.54769043 -162.22900391 -7.10644531 C-111.40895179 -38.54781432 -48.06043304 -34.61980346 0 0 Z M-170 12 C-171.45792969 13.12341797 -171.45792969 13.12341797 -172.9453125 14.26953125 C-176.55818269 17.03342833 -176.55818269 17.03342833 -180 20 C-180 20.66 -180 21.32 -180 22 C-181.485 22.495 -181.485 22.495 -183 23 C-184.56221756 24.73768402 -186.05443479 26.53913218 -187.5 28.375 C-191.791311 33.79635622 -191.791311 33.79635622 -193.77734375 35.734375 C-195.20747234 36.93175034 -195.20747234 36.93175034 -195.0625 38.875 C-193.39908751 42.20182499 -190.99163358 43.80206512 -188 46 C-187.34 46 -186.68 46 -186 46 C-184.63066121 44.44406999 -183.33055343 42.82702659 -182.0625 41.1875 C-170.68332337 27.01823679 -157.78384779 17.65110226 -142 9 C-140.54980469 8.17628906 -140.54980469 8.17628906 -139.0703125 7.3359375 C-123.00056286 -1.34439818 -104.32555327 -4.39946142 -86.25 -4.3125 C-85.01717285 -4.30686035 -83.7843457 -4.3012207 -82.51416016 -4.29541016 C-73.32519607 -4.17324544 -64.89281986 -3.46710087 -56 -1 C-55.30326172 -0.81195801 -54.60652344 -0.62391602 -53.88867188 -0.43017578 C-38.40586818 3.85658286 -24.6542765 11.14443051 -12 21 C-11.113125 21.67804688 -10.22625 22.35609375 -9.3125 23.0546875 C-0.67034809 29.85746249 6.45294327 37.16147341 13 46 C16.77209098 43.65292117 19.45917965 41.63192338 22 38 C2.10548062 11.18564779 -27.06686656 -8.34630117 -60 -15 C-60.89259521 -15.18183838 -61.78519043 -15.36367676 -62.70483398 -15.55102539 C-100.00032992 -22.48950764 -140.74269255 -12.17851669 -170 12 Z M-92 21 C-93.06404602 24.65765818 -93.51258002 26.8542329 -91.9375 30.375 C-89.26584741 32.61574088 -87.47094801 32.93058104 -84 33 C-80.27156036 31.26655125 -80.27156036 31.26655125 -78 28 C-77.61061662 23.89294529 -77.61061662 23.89294529 -79.125 20.1875 C-83.77905205 17.2399337 -87.91519393 17.26532016 -92 21 Z M-127.9375 26 C-130.23092162 29.33588599 -130.75815509 31.09984094 -130.48046875 35.0625 C-129.61102978 38.5685303 -127.91963173 40.01216563 -125 42 C-120.87151069 42.66350721 -118.80066382 42.43514338 -115.125 40.4375 C-112.33394692 37.23599794 -112 35.21894271 -112 31 C-113.58838934 27.42612398 -114.71634358 26.18910428 -118 24 C-122.32351988 23.43954372 -124.29704773 23.5213942 -127.9375 26 Z M-50 33 C-51.00217064 36.58327753 -51.00217064 36.58327753 -50 40 C-48.35 40 -46.7 40 -45 40 C-44.34 38.68 -43.68 37.36 -43 36 C-43.66 35.01 -44.32 34.02 -45 33 C-47.58380177 32.74969023 -47.58380177 32.74969023 -50 33 Z M-22 43 C-22.69159401 44.84725052 -22.69159401 44.84725052 -23 47 C-22.01 48.485 -22.01 48.485 -21 50 C-19.35 49.67 -17.7 49.34 -16 49 C-15.61781233 47.34385343 -15.28604898 45.67542976 -15 44 C-16.12534105 42.64381501 -16.12534105 42.64381501 -19.0625 42.9375 C-20.031875 42.958125 -21.00125 42.97875 -22 43 Z M-142.125 78.59765625 C-154.83150544 94.87786635 -159.57620196 112.65791705 -158 133 C-155.47906111 153.10426179 -144.75373411 169.68396022 -129.1796875 182.28125 C-112.36243723 193.72702033 -91.62277931 197.79046498 -71.640625 194.34765625 C-52.50013476 190.34619998 -37.06067446 179.69064071 -26.07519531 163.65966797 C-15.23322753 146.92404194 -13.24272014 128.95610116 -15.390625 109.453125 C-19.17174155 91.90486616 -30.92484482 74.64704495 -45.89233398 64.74853516 C-77.90861304 45.63589621 -117.26985023 49.28261065 -142.125 78.59765625 Z M-180 80 C-180.5 83 -180.5 83 -180 86 C-177.23011924 88.31543207 -177.23011924 88.31543207 -174.375 87.6875 C-172.06498035 87.2258486 -172.06498035 87.2258486 -171 86 C-170.66659529 83.04195427 -170.66659529 83.04195427 -171 80 C-175.01009099 77.32660601 -175.98990901 77.32660601 -180 80 Z M13 192 C11.85987668 193.34547386 10.72438066 194.69512651 9.61181641 196.06347656 C-11.6872776 222.21820907 -41.60612453 238.68686002 -75.125 242.6875 C-76.74857008 242.81198253 -78.37385915 242.91549189 -80 243 C-80.91136719 243.05285156 -81.82273437 243.10570312 -82.76171875 243.16015625 C-109.32098491 243.94231134 -137.99586735 235.52664857 -159 219 C-159.81597656 218.37351562 -160.63195312 217.74703125 -161.47265625 217.1015625 C-170.69419694 209.88966205 -179.16817375 202.56908114 -186 193 C-189.40212299 194.61382757 -192.10324519 196.58603766 -195 199 C-193.7580393 202.43927579 -192.44259716 205.25207819 -190 208 C-189.34 208 -188.68 208 -188 208 C-187.7834375 208.54011719 -187.566875 209.08023438 -187.34375 209.63671875 C-185.52981131 212.8269307 -183.08854631 215.25178318 -180.5 217.8125 C-179.96101074 218.34657471 -179.42202148 218.88064941 -178.86669922 219.4309082 C-174.26387207 223.9013922 -169.40650584 227.54364143 -164 231 C-162.97648437 231.70640625 -161.95296875 232.4128125 -160.8984375 233.140625 C-138.86172736 248.19205294 -113.41261954 255.44987103 -86.8125 255.4375 C-85.77343506 255.43860275 -85.77343506 255.43860275 -84.71337891 255.43972778 C-65.05301636 255.38539717 -46.5547917 252.08209828 -29 243 C-27.90042969 242.46632813 -26.80085937 241.93265625 -25.66796875 241.3828125 C-10.50182185 233.71721467 3.04881907 222.94454196 14 210 C15.86944269 207.91786622 17.73992671 205.83680748 19.6171875 203.76171875 C21.20738006 201.93952679 21.20738006 201.93952679 22 199 C20.69013727 197.83037314 19.3770374 196.66437056 18.0625 195.5 C17.33160156 194.8503125 16.60070312 194.200625 15.84765625 193.53125 C14.2716245 191.8936499 14.2716245 191.8936499 13 192 Z " fill="#051A1A" transform="translate(337,135)"/>
<path d="M0 0 C10.13149518 9.58727355 19.67181883 19.34147505 27.40576172 30.98608398 C28.34477806 32.37101512 29.31588875 33.73429512 30.30322266 35.08520508 C34.82666549 41.31190431 38.37930078 47.71093813 41.66894531 54.66162109 C42.44431641 56.29369507 42.44431641 56.29369507 43.23535156 57.95874023 C52.72469735 78.36291467 59.67481248 100.69504789 59.90722656 123.35302734 C59.91702042 124.14532745 59.92681427 124.93762756 59.93690491 125.75393677 C60.10760192 143.14506267 59.96895336 159.8846136 55.66894531 176.84912109 C55.4759082 177.66155273 55.28287109 178.47398437 55.08398438 179.31103516 C49.93585477 200.53755967 40.03706644 220.90784314 27.66894531 238.84912109 C27.23179199 239.50090332 26.79463867 240.15268555 26.34423828 240.82421875 C25.17195547 242.53656604 23.92577329 244.19782958 22.66894531 245.84912109 C22.00894531 245.84912109 21.34894531 245.84912109 20.66894531 245.84912109 C20.42015625 246.40341797 20.17136719 246.95771484 19.91503906 247.52880859 C15.04136553 256.60392483 6.71856221 264.50574778 -1.33105469 270.84912109 C-1.99105469 270.84912109 -2.65105469 270.84912109 -3.33105469 270.84912109 C-3.66105469 271.83912109 -3.99105469 272.82912109 -4.33105469 273.84912109 C-6.37644196 275.61311633 -8.3986826 277.20771647 -10.58105469 278.78662109 C-11.23783203 279.26389648 -11.89460938 279.74117188 -12.57128906 280.23291016 C-52.31453728 308.41948113 -98.92693012 320.11969079 -147.18212891 312.39257812 C-182.77407032 306.27548864 -214.41414673 289.75704321 -240.76855469 265.16162109 C-241.43072998 264.54416016 -242.09290527 263.92669922 -242.77514648 263.29052734 C-246.9181909 259.36006787 -250.689106 255.24433941 -254.33105469 250.84912109 C-254.96269531 250.12208984 -255.59433594 249.39505859 -256.24511719 248.64599609 C-286.40297238 212.56673554 -299.4509853 165.24896125 -296.11279297 118.81298828 C-292.82460131 84.75217694 -280.18806622 51.28938345 -258.68359375 24.58837891 C-257.24671842 22.74067135 -255.9273511 20.83438909 -254.60449219 18.90380859 C-253.85425781 17.89576172 -253.10402344 16.88771484 -252.33105469 15.84912109 C-251.67105469 15.84912109 -251.01105469 15.84912109 -250.33105469 15.84912109 C-250.08613281 15.27806641 -249.84121094 14.70701172 -249.58886719 14.11865234 C-247.10569764 9.63815076 -243.01319111 6.35134857 -239.33105469 2.84912109 C-238.74582031 2.28193359 -238.16058594 1.71474609 -237.55761719 1.13037109 C-230.46431505 -5.41729242 -222.28947319 -10.72735006 -214.33105469 -16.15087891 C-212.75517578 -17.23949219 -212.75517578 -17.23949219 -211.14746094 -18.35009766 C-146.88418447 -60.424195 -56.21469457 -51.86965429 0 0 Z M-215.71777344 9.53710938 C-217.33696788 10.85393004 -218.97376991 12.14633215 -220.61230469 13.43896484 C-228.89655136 20.08777422 -235.71380344 27.56195619 -242.33105469 35.84912109 C-243.02585938 36.69474609 -243.72066406 37.54037109 -244.43652344 38.41162109 C-271.01980749 72.61361955 -279.79872726 115.56318309 -274.76464844 157.88427734 C-273.37884595 168.24879569 -270.86414718 178.02056141 -267.33105469 187.84912109 C-266.91210938 189.04537109 -266.49316406 190.24162109 -266.06152344 191.47412109 C-255.92031075 218.59528931 -238.45112056 243.31313893 -215.33105469 260.84912109 C-214.74074463 261.30955811 -214.15043457 261.76999512 -213.54223633 262.24438477 C-208.66233263 266.00108331 -203.61096251 269.22948473 -198.26855469 272.28662109 C-197.44145996 272.76107666 -196.61436523 273.23553223 -195.76220703 273.72436523 C-184.37849645 280.17440414 -173.03945945 285.50556585 -160.33105469 288.84912109 C-159.68942383 289.02040527 -159.04779297 289.19168945 -158.38671875 289.36816406 C-118.7485201 299.81170472 -76.83859097 295.34734355 -41.03808594 274.86865234 C-30.22676615 268.48758234 -20.42997144 261.49198643 -11.33105469 252.84912109 C-10.77482422 252.32850098 -10.21859375 251.80788086 -9.64550781 251.27148438 C-1.64516603 243.73622546 5.23139498 235.75742138 11.66894531 226.84912109 C12.08217041 226.29716064 12.49539551 225.7452002 12.92114258 225.17651367 C15.95279327 221.07066058 18.37654572 216.87254454 20.60644531 212.28662109 C20.94780518 211.59117187 21.28916504 210.89572266 21.64086914 210.17919922 C30.05021216 192.88447551 36.01932253 175.89844195 38.66894531 156.84912109 C38.81251465 155.83023804 38.81251465 155.83023804 38.95898438 154.79077148 C43.24795999 120.90555823 36.67567105 87.8588857 20.66894531 57.84912109 C20.15726807 56.88570801 20.15726807 56.88570801 19.63525391 55.90283203 C14.50737745 46.43047151 8.29711031 38.3690826 1.07080078 30.40673828 C-0.19037453 29.00543238 -1.41733975 27.57351731 -2.63964844 26.13818359 C-8.5703776 19.23895003 -15.21888069 13.47993319 -22.33105469 7.84912109 C-22.85763672 7.42630859 -23.38421875 7.00349609 -23.92675781 6.56787109 C-79.44135571 -37.45857582 -161.42326743 -34.73404957 -215.71777344 9.53710938 Z " fill="#0B1E1F" transform="translate(368.3310546875,119.15087890625)"/>
<path d="M0 0 C0.6487207 0.44005371 1.29744141 0.88010742 1.96582031 1.33349609 C3.67851878 2.50663016 5.34377723 3.74839874 7 5 C7 5.66 7 6.32 7 7 C7.58483154 7.26176025 8.16966309 7.52352051 8.7722168 7.79321289 C19.34097102 13.51829257 28.20607587 25.81367453 34 36 C35.10354969 37.64634447 36.2075475 39.29241785 37.32128906 40.93188477 C57.12473793 70.4278667 64.1075109 109.68286181 57.54907227 144.43310547 C57.07593805 146.63487025 56.54919144 148.81594281 56 151 C55.76893555 151.93005859 55.53787109 152.86011719 55.29980469 153.81835938 C51.9272765 167.02848865 47.74662407 179.14482108 41 191 C40.49726563 191.91523438 39.99453125 192.83046875 39.4765625 193.7734375 C33.3468113 204.50896861 25.46246297 214.03605774 17 223 C16.42765625 223.61359375 15.8553125 224.2271875 15.265625 224.859375 C-10.51404465 251.6211273 -47.02638723 266.43579982 -83.95703125 267.16650391 C-124.20425219 267.55628555 -160.85751942 251.35404974 -190 224 C-196.50661049 217.61440253 -202.05906819 210.6482917 -207 203 C-207.64710938 202.00226563 -208.29421875 201.00453125 -208.9609375 199.9765625 C-222.47356827 178.59450691 -232.04204107 153.88504446 -232.203125 128.2578125 C-232.20882507 127.53117401 -232.21452515 126.80453552 -232.22039795 126.05587769 C-232.22979519 124.5213158 -232.23636079 122.98673421 -232.24023438 121.45214844 C-232.2498295 119.16562941 -232.28085565 116.88005456 -232.3125 114.59375 C-232.55023146 81.78990703 -220.6415207 47.19797289 -198.09619141 22.95263672 C-196.4215759 21.2736659 -194.723292 19.62872109 -193 18 C-192.21625 17.21625 -191.4325 16.4325 -190.625 15.625 C-189.75875 14.75875 -188.8925 13.8925 -188 13 C-187.4121875 12.35417969 -186.824375 11.70835937 -186.21875 11.04296875 C-179.62904695 4.02296792 -172.13505785 -0.96924539 -164 -6 C-163.12335693 -6.54769043 -163.12335693 -6.54769043 -162.22900391 -7.10644531 C-111.40895179 -38.54781432 -48.06043304 -34.61980346 0 0 Z M-170 12 C-170.97195312 12.74894531 -171.94390625 13.49789062 -172.9453125 14.26953125 C-176.55818269 17.03342833 -176.55818269 17.03342833 -180 20 C-180 20.66 -180 21.32 -180 22 C-181.485 22.495 -181.485 22.495 -183 23 C-184.56221756 24.73768402 -186.05443479 26.53913218 -187.5 28.375 C-191.791311 33.79635622 -191.791311 33.79635622 -193.77734375 35.734375 C-195.20747234 36.93175034 -195.20747234 36.93175034 -195.0625 38.875 C-193.42577783 42.14844435 -190.89214854 43.78473729 -188 46 C-188.89250018 47.66845395 -189.78920992 49.33465617 -190.6875 51 C-191.18636719 51.928125 -191.68523437 52.85625 -192.19921875 53.8125 C-193.14549034 55.48746229 -194.10610635 57.15819172 -195.17773438 58.75585938 C-198.92028491 64.34956394 -201.06720091 70.11393647 -203.125 76.5 C-203.47046875 77.57024414 -203.8159375 78.64048828 -204.171875 79.74316406 C-211.75029481 103.74390391 -212.67993124 128.59791592 -206 153 C-205.82871582 153.65677734 -205.65743164 154.31355469 -205.48095703 154.99023438 C-202.40309646 166.49747103 -196.5960535 183.34379388 -187 191 C-186.34 191 -185.68 191 -185 191 C-186.28682545 193.57365089 -187.44697943 193.72348972 -190 195 C-191.68889872 196.3050581 -193.3603279 197.63360658 -195 199 C-193.7580393 202.43927579 -192.44259716 205.25207819 -190 208 C-189.34 208 -188.68 208 -188 208 C-187.7834375 208.54011719 -187.566875 209.08023438 -187.34375 209.63671875 C-185.52981131 212.8269307 -183.08854631 215.25178318 -180.5 217.8125 C-179.96101074 218.34657471 -179.42202148 218.88064941 -178.86669922 219.4309082 C-174.26387207 223.9013922 -169.40650584 227.54364143 -164 231 C-162.97648437 231.70640625 -161.95296875 232.4128125 -160.8984375 233.140625 C-138.86172736 248.19205294 -113.41261954 255.44987103 -86.8125 255.4375 C-85.77343506 255.43860275 -85.77343506 255.43860275 -84.71337891 255.43972778 C-65.05301636 255.38539717 -46.5547917 252.08209828 -29 243 C-27.90042969 242.46632813 -26.80085937 241.93265625 -25.66796875 241.3828125 C-10.50182185 233.71721467 3.04881907 222.94454196 14 210 C15.86944269 207.91786622 17.73992671 205.83680748 19.6171875 203.76171875 C21.20738006 201.93952679 21.20738006 201.93952679 22 199 C19.36 196.69 16.72 194.38 14 192 C15.57195488 189.36552006 17.15966039 186.74697298 18.796875 184.15234375 C24.80382333 174.26490679 28.51686454 164.00041087 32 153 C32.3403125 151.96875 32.680625 150.9375 33.03125 149.875 C41.73188542 121.33691582 36.89682893 88.51862753 24 62 C20.96673394 56.47568383 17.55725391 51.19906341 14 46 C16.64 43.69 19.28 41.38 22 39 C18.76124923 33.2636546 14.47572198 28.79190328 10 24 C9.29230469 23.20335937 8.58460938 22.40671875 7.85546875 21.5859375 C-9.47248537 2.95307615 -35.22172767 -9.99388171 -60 -15 C-60.89259521 -15.18183838 -61.78519043 -15.36367676 -62.70483398 -15.55102539 C-100.00032992 -22.48950764 -140.74269255 -12.17851669 -170 12 Z " fill="#4C795C" transform="translate(337,135)"/>
<path d="M0 0 C0.73871338 0.00491455 1.47742676 0.0098291 2.23852539 0.01489258 C19.71923805 0.38480457 32.6672126 8.26570899 44.75 20.3125 C54.44603149 31.46755337 58.2977468 46.46384628 57.9921875 60.9609375 C57.00655689 74.60079335 51.75251285 88.2667696 42.171875 98.21875 C27.3760342 111.00999301 11.66231496 115.33229861 -7.60449219 114.52148438 C-22.18073462 113.37002041 -34.49050995 104.62153088 -44.3125 94.3125 C-55.22158503 81.31874751 -57.3469531 66.16753655 -56.46142578 49.70117188 C-55.59608533 39.9246234 -51.96551851 31.23376473 -46.25 23.3125 C-45.76015625 22.62800781 -45.2703125 21.94351563 -44.765625 21.23828125 C-34.18805876 7.91159507 -16.90136158 -0.1348357 0 0 Z " fill="#5C996D" transform="translate(250.25,201.6875)"/>
<path d="M0 0 C5.06481773 1.68827258 6.68742768 6.40383497 9 11 C15.85329688 27.68549348 17.47684592 43.59766541 10.5234375 60.61328125 C4.01898238 74.90395176 -5.97408854 84.12496241 -20.20703125 90.41796875 C-34.48149147 95.71117555 -50.29830246 96.14647345 -64.6015625 90.63671875 C-70.09780744 87.98967665 -75.32040843 84.94758842 -80 81 C-80 79 -80 79 -77.92578125 76.8046875 C-76.9513204 75.8689583 -75.9759828 74.93414168 -75 74 C-73.90712656 72.90144322 -72.81743049 71.79971891 -71.73046875 70.6953125 C-70.54951972 69.50516809 -69.36852943 68.31506463 -68.1875 67.125 C-67.60935547 66.53847656 -67.03121094 65.95195312 -66.43554688 65.34765625 C-63.56181678 62.45804919 -60.65646761 59.67610229 -57.54418945 57.04418945 C-51.62806399 51.89052195 -46.15666352 46.28038012 -40.625 40.72265625 C-39.44838076 39.54416817 -38.27153775 38.36590347 -37.09448242 37.18785095 C-34.02139193 34.11097192 -30.95131845 31.0311001 -27.88189697 27.95056152 C-24.73951326 24.79788427 -21.59423929 21.64809331 -18.44921875 18.49804688 C-12.29667193 12.33482746 -6.14731438 6.16843835 0 0 Z " fill="#041919" transform="translate(293,222)"/>
<path d="M0 0 C3.61973066 1.20657689 4.15106241 2.58815653 5.85522461 5.86425781 C6.19175049 6.54842773 6.52827637 7.23259766 6.875 7.9375 C7.40009155 8.99275879 7.40009155 8.99275879 7.93579102 10.06933594 C11.74855434 18.06534062 13.92598971 26.4191162 16 35 C16.26828613 35.90878906 16.26828613 35.90878906 16.54199219 36.8359375 C19.67685386 51.6479918 18.12127124 70.9165041 13 85 C12.5875 86.216875 12.175 87.43375 11.75 88.6875 C6.06021957 104.20508299 -2.30921752 117.3607945 -14 129 C-15.16015625 130.23169922 -15.16015625 130.23169922 -16.34375 131.48828125 C-21.4238518 136.80986676 -26.80148396 141.05131571 -33 145 C-33.88042969 145.57492187 -34.76085937 146.14984375 -35.66796875 146.7421875 C-60.31435896 162.03994694 -89.78306355 166.88487259 -118.07104492 160.77026367 C-129.2063754 158.15235856 -139.17134856 153.81110049 -149 148 C-149.89332031 147.48824219 -150.78664062 146.97648438 -151.70703125 146.44921875 C-157.15101607 143.18594316 -161.94015409 139.50608478 -166.625 135.25 C-167.14634521 134.77796143 -167.66769043 134.30592285 -168.20483398 133.81958008 C-170.61253912 131.56494972 -171.93974209 130.18077374 -173 127 C-170.69 125.02 -168.38 123.04 -166 121 C-162.68767163 122.65616419 -160.21569582 124.35314768 -157.38378906 126.6809082 C-135.91485192 144.30844335 -110.81463246 152.44981793 -83 150 C-61.69858218 146.80534583 -44.53944243 138.69489293 -28 125 C-26.4840625 123.8553125 -26.4840625 123.8553125 -24.9375 122.6875 C-17.21332919 115.62070542 -11.28814351 106.98012822 -6 98 C-5.62230469 97.38253906 -5.24460937 96.76507813 -4.85546875 96.12890625 C5.29718015 77.96739488 7.54085543 51.79972235 2.25 32 C1.54482273 29.65273149 0.79872077 27.31710802 0 25 C-0.34675781 23.94554687 -0.69351563 22.89109375 -1.05078125 21.8046875 C-2.41653506 17.84980195 -3.8684907 14.24110039 -5.875 10.5625 C-7 8 -7 8 -6.5 5.875 C-4.55697758 3.44622198 -2.59875257 1.71137364 0 0 Z " fill="#5F966E" transform="translate(344,199)"/>
<path d="M0 0 C1.1055189 0.93590504 2.20935453 1.87379858 3.3125 2.8125 C4.23482422 3.59560547 4.23482422 3.59560547 5.17578125 4.39453125 C6.85424679 5.87172469 8.43882034 7.40039131 10 9 C9.34 9 8.68 9 8 9 C7.61714844 10.07314453 7.61714844 10.07314453 7.2265625 11.16796875 C5.91233566 14.20240971 4.26001767 16.59762396 2.375 19.3125 C-3.85201098 28.9274198 -6.86495887 40.08008609 -10 51 C-10.21060059 51.72558105 -10.42120117 52.45116211 -10.63818359 53.19873047 C-16.05863525 72.86722646 -14.33328175 95.51728603 -9 115 C-8.82871582 115.65677734 -8.65743164 116.31355469 -8.48095703 116.99023438 C-6.28103892 125.21509634 -2.87904947 132.64315627 1 140.1875 C1.41523926 141.00226807 1.83047852 141.81703613 2.25830078 142.65649414 C4.62209008 147.08058189 6.71737853 150.16276327 11 153 C10 156 10 156 8.3125 156.875 C7.1678125 157.431875 7.1678125 157.431875 6 158 C4.93378826 158.83422058 3.88651755 159.69300422 2.85546875 160.5703125 C1.91316406 161.37210938 0.97085938 162.17390625 0 163 C-21.66723206 126.38414026 -33.19371789 89.20464912 -22.5390625 46.4453125 C-18.48128001 31.57372197 -11.98491185 10.30426904 0 0 Z " fill="#619B72" transform="translate(141,173)"/>
<path d="M0 0 C4.94084587 4.94084587 7.69448096 10.34991258 10.875 16.5 C11.18747681 17.10070312 11.49995361 17.70140625 11.82189941 18.3203125 C17.25918708 28.84364367 21.44954593 39.40668784 24 51 C24.18780029 51.77883545 24.37560059 52.5576709 24.5690918 53.36010742 C26.32458233 61.49468251 26.33811131 69.58614163 26.31567383 77.86889648 C26.31251906 80.29782272 26.33603093 82.72552069 26.36132812 85.15429688 C26.40126224 94.87958422 25.49567889 103.55699299 23 113 C22.79689209 113.85360107 22.59378418 114.70720215 22.38452148 115.58666992 C18.13032585 133.1610501 9.69442126 148.84468456 0 164 C-0.29438965 163.37512695 -0.5887793 162.75025391 -0.89208984 162.10644531 C-2.15686759 159.70175109 -3.5282823 158.45843665 -5.625 156.75 C-6.25664062 156.22921875 -6.88828125 155.7084375 -7.5390625 155.171875 C-8.02117187 154.78515625 -8.50328125 154.3984375 -9 154 C-7.42804512 151.36552006 -5.84033961 148.74697298 -4.203125 146.15234375 C1.80382333 136.26490679 5.51686454 126.00041087 9 115 C9.3403125 113.96875 9.680625 112.9375 10.03125 111.875 C18.73188542 83.33691582 13.89682893 50.51862753 1 24 C-2.03326606 18.47568383 -5.44274609 13.19906341 -9 8 C-6.03 5.36 -3.06 2.72 0 0 Z " fill="#619C71" transform="translate(359,173)"/>
<path d="M0 0 C2.91105099 1.119635 3.6929654 2.42435885 5.4375 4.9375 C-2.24437502 12.64261798 -9.929003 20.34497878 -17.61708832 28.04390049 C-21.18747146 31.6194864 -24.75692495 35.19598989 -28.32421875 38.7746582 C-31.77144567 42.23280701 -35.2211602 45.68845664 -38.67256165 49.14243889 C-39.98423344 50.45594824 -41.29502967 51.77033256 -42.60490417 53.08563423 C-55.02970963 65.5598344 -55.02970963 65.5598344 -61.07136536 70.67121887 C-63.06925172 72.36783682 -64.91507197 74.19236013 -66.75 76.0625 C-67.40355469 76.72507812 -68.05710938 77.38765625 -68.73046875 78.0703125 C-69.33503906 78.68648438 -69.93960938 79.30265625 -70.5625 79.9375 C-71.56129008 80.93870846 -72.56109056 81.93891143 -73.5625 82.9375 C-74.5525 83.9275 -74.5525 83.9275 -75.5625 84.9375 C-77.2125 83.6175 -78.8625 82.2975 -80.5625 80.9375 C-80.0831037 76.36604162 -78.52048827 74.419726 -75.265625 71.25 C-74.3890625 70.38632812 -73.5125 69.52265625 -72.609375 68.6328125 C-71.22492188 67.29863281 -71.22492188 67.29863281 -69.8125 65.9375 C-68.45125 64.60332031 -68.45125 64.60332031 -67.0625 63.2421875 C-65.36292419 61.57739833 -63.65926491 59.91676014 -61.95019531 58.26171875 C-58.64993867 55.04919899 -55.40077129 51.7880787 -52.16796875 48.5078125 C-48.28001013 44.57588666 -44.39349887 40.71778782 -40.1875 37.125 C-37.25570587 34.61623027 -34.90993829 32.01345362 -32.5625 28.9375 C-29.67795963 25.8366191 -27.30990791 23.81120395 -23.5625 21.9375 C-23.0675 20.4525 -23.0675 20.4525 -22.5625 18.9375 C-20.99609375 17.4296875 -20.99609375 17.4296875 -19 15.8125 C-15.06674285 12.4935936 -11.74238405 8.87736297 -8.421875 4.953125 C-3.76793639 -0.09190089 -3.76793639 -0.09190089 0 0 Z " fill="#38644B" transform="translate(288.5625,217.0625)"/>
<path d="M0 0 C0 0.99 0 1.98 0 3 C-0.33 3.33 -0.66 3.66 -1 4 C-0.505 4.433125 -0.01 4.86625 0.5 5.3125 C2 7 2 7 2 10 C2.66 9.34 3.32 8.68 4 8 C4 7.67 4 7.34 4 7 C5.65 7 7.3 7 9 7 C7.625 9 7.625 9 6 11 C5.34 11 4.68 11 4 11 C4 11.66 4 12.32 4 13 C2.92054336 14.11427782 1.83197365 15.22053243 0.7109375 16.29296875 C-3.03276802 20.028127 -6.4823438 24.05317442 -10 28 C-12 24.25 -12 24.25 -12 22 C-12.99 21.67 -13.98 21.34 -15 21 C-15 20.34 -15 19.68 -15 19 C-15.66 18.34 -16.32 17.68 -17 17 C-11.33333333 11.33333333 -5.66666667 5.66666667 0 0 Z " fill="#517C5F" transform="translate(153,144)"/>
<path d="M0 0 C3.34903861 1.23768818 4.85279734 2.10697303 6.875 5.0625 C7.4375 8.5 7.4375 8.5 6.875 12.0625 C4.42901113 15.44371991 2.98203441 16.83186783 -1.125 17.6875 C-5.23203441 16.83186783 -6.67901113 15.44371991 -9.125 12.0625 C-9.8125 8.5625 -9.8125 8.5625 -9.125 5.0625 C-6.17069028 1.68614603 -4.55909952 0.09118199 0 0 Z " fill="#639D71" transform="translate(160.125,273.9375)"/>
<path d="M0 0 C0.50958519 2.03834076 1.01372981 4.06668764 1.4375 6.125 C1.90475673 8.22082328 1.90475673 8.22082328 4 10 C4.0063753 13.63392341 2.7355115 15.53614398 0.33984375 18.0859375 C-0.78352078 19.19330396 -1.91822689 20.28925261 -3.0625 21.375 C-3.94071411 22.23001099 -3.94071411 22.23001099 -4.83666992 23.10229492 C-9.09245424 27.21741154 -13.44551034 31.21605844 -18 35 C-18.66 33.68 -19.32 32.36 -20 31 C-19.01 29.68 -18.02 28.36 -17 27 C-16.34 27.66 -15.68 28.32 -15 29 C-14.67 28.01 -14.34 27.02 -14 26 C-13.01 26 -12.02 26 -11 26 C-11 24.02 -11 22.04 -11 20 C-8.92446352 19.4465236 -7.15634036 19 -5 19 C-4.34 18.34 -3.68 17.68 -3 17 C-2.34 16.34 -1.68 15.68 -1 15 C-0.34 15 0.32 15 1 15 C1 14.01 1 13.02 1 12 C-3.22371232 12.92921671 -5.98199807 13.73614273 -9.1875 16.6875 C-10.115625 17.450625 -11.04375 18.21375 -12 19 C-14.17578125 18.64453125 -14.17578125 18.64453125 -16 18 C-15.26394531 17.20335937 -14.52789062 16.40671875 -13.76953125 15.5859375 C-12.78378001 14.5156933 -11.79810712 13.44537693 -10.8125 12.375 C-10.32974609 11.85292969 -9.84699219 11.33085937 -9.34960938 10.79296875 C-6.11982129 7.28138707 -3.02821458 3.68700349 0 0 Z " fill="#4F785C" transform="translate(357,337)"/>
<path d="M0 0 C8 2.66666667 16 5.33333333 24 8 C23.525625 8.433125 23.05125 8.86625 22.5625 9.3125 C20.76313043 11.02309613 20.76313043 11.02309613 20 14 C19.34 14.66 18.68 15.32 18 16 C18.66 16.99 19.32 17.98 20 19 C12.99102311 17.27068234 6.49711809 15.16032658 0 12 C0 11.67 0 11.34 0 11 C1.65 10.67 3.3 10.34 5 10 C4.67 9.21625 4.34 8.4325 4 7.625 C3 5 3 5 3 3 C2.01 2.67 1.02 2.34 0 2 C0 1.34 0 0.68 0 0 Z " fill="#568064" transform="translate(191,377)"/>
<path d="M0 0 C0.33 0.66 0.66 1.32 1 2 C4.40593219 3.13531073 7.61959467 3.95524643 11.1875 4.375 C14.60972131 5.13549362 15.88871952 6.23909476 18 9 C18 9.99 18 10.98 18 12 C18.66 12.33 19.32 12.66 20 13 C15.375 15.125 15.375 15.125 12 14 C10.6696875 14.3403125 10.6696875 14.3403125 9.3125 14.6875 C4.70513381 15.12215719 1.89103434 13.30104315 -2 11 C-2.25 3.375 -2.25 3.375 0 0 Z " fill="#4F7A5C" transform="translate(306,119)"/>
<path d="M0 0 C4.56030824 3.80475422 8.85089392 7.74969621 13 12 C12.67 12.66 12.34 13.32 12 14 C11.01 13.67 10.02 13.34 9 13 C9 12.34 9 11.68 9 11 C8.01 11 7.02 11 6 11 C6.33 11.66 6.66 12.32 7 13 C6 16 6 16 5 17 C5 17.66 5 18.32 5 19 C5.66 19.66 6.32 20.32 7 21 C4 21 4 21 1.87890625 18.98828125 C0.73228516 17.66376953 0.73228516 17.66376953 -0.4375 16.3125 C-1.19933594 15.44238281 -1.96117187 14.57226562 -2.74609375 13.67578125 C-4.87414155 11.14941602 -6.95085328 8.5906069 -9 6 C-8.443125 6.268125 -7.88625 6.53625 -7.3125 6.8125 C-4.69906504 7.29726436 -4.69906504 7.29726436 -2.25 4.6875 C0.21397889 2.3285839 0.21397889 2.3285839 0 0 Z " fill="#63876D" transform="translate(351,148)"/>
<path d="M0 0 C2.88305128 0.59925491 4.99659057 1.45146232 7.453125 3.06640625 C8.071875 3.46923828 8.690625 3.87207031 9.328125 4.28710938 C9.96234375 4.70798828 10.5965625 5.12886719 11.25 5.5625 C11.8996875 5.98724609 12.549375 6.41199219 13.21875 6.84960938 C14.81578918 7.8947306 16.4083442 8.94669837 18 10 C16 12 16 12 13 12.3125 C12.01 12.209375 11.02 12.10625 10 12 C9.34 11.01 8.68 10.02 8 9 C5.65712582 11.67247634 5.65712582 11.67247634 5 15 C1.16336928 13.65070536 -1.65172569 11.92248975 -4.8125 9.375 C-5.60269531 8.74335938 -6.39289063 8.11171875 -7.20703125 7.4609375 C-7.79871094 6.97882813 -8.39039063 6.49671875 -9 6 C-6.29120665 4.64560332 -3.99066732 4.93498549 -1 5 C-0.67 3.35 -0.34 1.7 0 0 Z " fill="#568165" transform="translate(169,364)"/>
<path d="M0 0 C0.309375 0.969375 0.61875 1.93875 0.9375 2.9375 C1.68330077 6.21591666 1.68330077 6.21591666 4.625 7.375 C5.40875 7.58125 6.1925 7.7875 7 8 C3.85281112 11.2682346 0.50647501 14.1310659 -3 17 C-4.20528665 15.11542462 -5.38866449 13.21682415 -6.5625 11.3125 C-7.55443359 9.72888672 -7.55443359 9.72888672 -8.56640625 8.11328125 C-10.12228996 4.73442753 -10.17333576 3.45589057 -9 0 C-2.93258427 -1.51685393 -2.93258427 -1.51685393 0 0 Z " fill="#639E72" transform="translate(144,319)"/>
<path d="M0 0 C0.66 0.33 1.32 0.66 2 1 C4.42797311 1 6.62907005 0.49914315 9 0 C8.25 4.75 8.25 4.75 6 7 C5.35232207 9.57061311 5.35232207 9.57061311 5 12 C4.195625 12.12375 3.39125 12.2475 2.5625 12.375 C1.716875 12.58125 0.87125 12.7875 0 13 C-0.33 13.66 -0.66 14.32 -1 15 C-1.99 15.33 -2.98 15.66 -4 16 C-4.33 15.34 -4.66 14.68 -5 14 C-4.67 13.01 -4.34 12.02 -4 11 C-4.99 10.34 -5.98 9.68 -7 9 C-6.02180976 7.68677212 -5.0424189 6.37443848 -4.0625 5.0625 C-3.51722656 4.33160156 -2.97195312 3.60070312 -2.41015625 2.84765625 C-1 1 -1 1 0 0 Z " fill="#4B795B" transform="translate(158,139)"/>
<path d="M0 0 C1.051875 0.103125 2.10375 0.20625 3.1875 0.3125 C3.1875 1.3025 3.1875 2.2925 3.1875 3.3125 C2.40375 3.56 1.62 3.8075 0.8125 4.0625 C-2.13567108 5.46639099 -2.7149777 6.31925737 -3.8125 9.3125 C-5.14583333 9.3125 -6.47916667 9.3125 -7.8125 9.3125 C-8.1425 10.9625 -8.4725 12.6125 -8.8125 14.3125 C-9.8025 14.3125 -10.7925 14.3125 -11.8125 14.3125 C-11.8125 15.6325 -11.8125 16.9525 -11.8125 18.3125 C-12.8025 17.9825 -13.7925 17.6525 -14.8125 17.3125 C-14.8125 16.3225 -14.8125 15.3325 -14.8125 14.3125 C-15.8025 13.9825 -16.7925 13.6525 -17.8125 13.3125 C-17.338125 12.879375 -16.86375 12.44625 -16.375 12 C-14.57563043 10.28940387 -14.57563043 10.28940387 -13.8125 7.3125 C-13.07 7.02375 -12.3275 6.735 -11.5625 6.4375 C-8.598673 5.45632025 -8.598673 5.45632025 -6.4375 2.6875 C-3.8125 0.3125 -3.8125 0.3125 0 0 Z " fill="#407152" transform="translate(354.8125,348.6875)"/>
<path d="M0 0 C0.99 0.33 1.98 0.66 3 1 C2.01 1.495 2.01 1.495 1 2 C1 2.66 1 3.32 1 4 C0.278125 4.226875 -0.44375 4.45375 -1.1875 4.6875 C-4.55538115 6.25917787 -6.45032767 8.31957525 -9 11 C-12.51724138 14 -12.51724138 14 -16 14 C-16.0825 14.763125 -16.165 15.52625 -16.25 16.3125 C-17 19 -17 19 -18.9140625 20.34765625 C-21.48822527 22.38674024 -22.05800153 24.04953381 -23.125 27.125 C-24.79964851 31.89982425 -24.79964851 31.89982425 -27 33 C-26.51809568 23.84381783 -19.53458384 15.03549484 -13 9 C-10.80459907 7.23192942 -8.54877739 5.56832715 -6.25 3.9375 C-5.68273193 3.53072021 -5.11546387 3.12394043 -4.53100586 2.70483398 C-2.890625 1.58984375 -2.890625 1.58984375 0 0 Z " fill="#7AA583" transform="translate(224,208)"/>
<path d="M0 0 C0.33 0.99 0.66 1.98 1 3 C2.32 3 3.64 3 5 3 C5.66 4.98 6.32 6.96 7 9 C-0.5099023 11.62012147 -0.5099023 11.62012147 -3.93359375 10.1953125 C-6.64489183 8.10169624 -7.91962602 6.60280483 -8.375 3.1875 C-8.25125 2.465625 -8.1275 1.74375 -8 1 C-6.02 1.99 -6.02 1.99 -4 3 C-4 2.34 -4 1.68 -4 1 C-2.68 0.67 -1.36 0.34 0 0 Z " fill="#3F7153" transform="translate(155,353)"/>
<path d="M0 0 C3.0625 0.1875 3.0625 0.1875 5.0625 2.1875 C5.42737512 5.03352594 5.46449375 6.5739306 3.875 9 C1.50267475 10.55428206 -0.15791345 10.41287188 -2.9375 10.1875 C-4.52288318 7.66953847 -4.9748656 6.50884414 -4.625 3.5 C-3.62564314 0.13852692 -3.62106327 0.2311317 0 0 Z " fill="#689578" transform="translate(180.9375,185.8125)"/>
<path d="M0 0 C2 2 2 2 2 4 C4.64 4 7.28 4 10 4 C10 5.32 10 6.64 10 8 C5.74684436 9.6491828 3.3351775 10.49974625 -0.9375 8.625 C-1.948125 8.08875 -2.95875 7.5525 -4 7 C-1.125 1.125 -1.125 1.125 0 0 Z " fill="#3E714F" transform="translate(177,371)"/>
<path d="M0 0 C1.32 1.65 2.64 3.3 4 5 C-0.80681818 7.9375 -0.80681818 7.9375 -3.125 8.6875 C-5.86366993 10.60456895 -6.27829161 13.08630598 -7.19140625 16.22265625 C-7.45824219 16.80917969 -7.72507812 17.39570313 -8 18 C-8.99 18.33 -9.98 18.66 -11 19 C-11.33 18.34 -11.66 17.68 -12 17 C-13.98 17.99 -13.98 17.99 -16 19 C-15.29488281 18.32582031 -14.58976562 17.65164063 -13.86328125 16.95703125 C-10.67072219 13.76447219 -7.94159946 10.2579013 -5.1875 6.6875 C-4.68541016 6.04232422 -4.18332031 5.39714844 -3.66601562 4.73242188 C-2.44094319 3.15732875 -1.2200368 1.57899684 0 0 Z " fill="#2C3A37" transform="translate(311,297)"/>
<path d="M0 0 C0.66 0.33 1.32 0.66 2 1 C1.34 2.32 0.68 3.64 0 5 C-0.99 5 -1.98 5 -3 5 C-2.67 6.32 -2.34 7.64 -2 9 C-2.61875 9.12375 -3.2375 9.2475 -3.875 9.375 C-6.19120832 9.87197356 -6.19120832 9.87197356 -8 12 C-9.875 12.703125 -9.875 12.703125 -12 13.25 C-12.70125 13.44078125 -13.4025 13.6315625 -14.125 13.828125 C-14.74375 13.88484375 -15.3625 13.9415625 -16 14 C-16.66 13.34 -17.32 12.68 -18 12 C-17.03578125 11.38511719 -16.0715625 10.77023437 -15.078125 10.13671875 C-13.80203118 9.32039403 -12.52599241 8.50398324 -11.25 7.6875 C-10.61578125 7.28337891 -9.9815625 6.87925781 -9.328125 6.46289062 C-6.12825108 4.4129714 -2.99921855 2.34029932 0 0 Z " fill="#5C7F67" transform="translate(332,362)"/>
<path d="M0 0 C0.99 0.33 1.98 0.66 3 1 C2.72929687 1.87398437 2.72929687 1.87398437 2.453125 2.765625 C1.46637152 7.63134045 3.89579664 12.84613406 5.625 17.375 C7 21 7 21 7 23 C6.01 22.67 5.02 22.34 4 22 C2.9375 19.70703125 2.9375 19.70703125 2 16.8125 C0.88753287 13.48372237 -0.18614405 10.65873591 -1.875 7.5625 C-3 5 -3 5 -2.25 2.6875 C-1 1 -1 1 0 0 Z " fill="#679677" transform="translate(340,202)"/>
<path d="M0 0 C1.32 0 2.64 0 4 0 C4.33 0.99 4.66 1.98 5 3 C5.99 3.33 6.98 3.66 8 4 C8 4.66 8 5.32 8 6 C4.91190305 7.76462683 3.76687864 8 0 8 C-2.75 5.625 -2.75 5.625 -5 3 C-5 2.34 -5 1.68 -5 1 C-3.35 1 -1.7 1 0 1 C0 0.67 0 0.34 0 0 Z " fill="#5F9E6D" transform="translate(180,325)"/>
<path d="M0 0 C1.32 0.33 2.64 0.66 4 1 C4.33 3.31 4.66 5.62 5 8 C4.2575 8.12375 3.515 8.2475 2.75 8.375 C0.19858515 8.95486701 -1.7267573 9.73708739 -4 11 C-4.33 9.68 -4.66 8.36 -5 7 C-4.175 6.401875 -3.35 5.80375 -2.5 5.1875 C-1.2625 4.1046875 -1.2625 4.1046875 0 3 C0 2.01 0 1.02 0 0 Z " fill="#3E7253" transform="translate(329,367)"/>
<path d="M0 0 C0.33 0.99 0.66 1.98 1 3 C1.99 2.67 2.98 2.34 4 2 C4.33 3.65 4.66 5.3 5 7 C4.195625 7.12375 3.39125 7.2475 2.5625 7.375 C1.2940625 7.684375 1.2940625 7.684375 0 8 C-0.33 8.66 -0.66 9.32 -1 10 C-4.48832306 7.79072873 -5.73058503 5.91402949 -7 2 C-6.01 2 -5.02 2 -4 2 C-4 2.99 -4 3.98 -4 5 C-1.48916886 3.74458443 -1.12874554 2.49936512 0 0 Z " fill="#407250" transform="translate(347,146)"/>
<path d="M0 0 C0.99 0.33 1.98 0.66 3 1 C2.67 1.66 2.34 2.32 2 3 C3.65 3.33 5.3 3.66 7 4 C6.67 5.65 6.34 7.3 6 9 C5.34 9 4.68 9 4 9 C3.67 9.66 3.34 10.32 3 11 C1.35 11 -0.3 11 -2 11 C-2.33 10.01 -2.66 9.02 -3 8 C-2.34 7.67 -1.68 7.34 -1 7 C-0.59270772 4.67843403 -0.25561323 2.3431213 0 0 Z " fill="#407151" transform="translate(136,162)"/>
<path d="M0 0 C2.5 1.3125 2.5 1.3125 5 3 C5 6 5 6 3.7578125 7.60546875 C3.21898437 8.12753906 2.68015625 8.64960938 2.125 9.1875 C1.59132813 9.71730469 1.05765625 10.24710938 0.5078125 10.79296875 C-1 12 -1 12 -3 12 C-4 9 -4 9 -3.1875 6.875 C-2 5 -2 5 0 4 C0 2.68 0 1.36 0 0 Z " fill="#3C654E" transform="translate(288,217)"/>
<path d="M0 0 C1 4 1 4 -0.1875 6.5625 C-1.99285285 8.99038832 -3.34585792 10.55228614 -6 12 C-7.32 11.67 -8.64 11.34 -10 11 C-6.7 7.37 -3.4 3.74 0 0 Z " fill="#61826C" transform="translate(351,344)"/>
<path d="M0 0 C3.84766567 0.76953313 5.2397053 2.2397053 8 5 C7.34 5 6.68 5 6 5 C6 5.66 6 6.32 6 7 C5.01 7 4.02 7 3 7 C3 8.65 3 10.3 3 12 C0.53721199 10.768606 -0.42497687 9.21935077 -2 7 C-1.67 6.34 -1.34 5.68 -1 5 C-0.34 5.33 0.32 5.66 1 6 C0.67 4.02 0.34 2.04 0 0 Z " fill="#427254" transform="translate(356,158)"/>
<path d="M0 0 C0.8125 1.6875 0.8125 1.6875 1 4 C-0.17746971 5.14382771 -1.36343163 6.28040627 -2.59375 7.3671875 C-4.97454014 10.13154939 -5.92051472 13.48199127 -7.10546875 16.890625 C-8 19 -8 19 -10 20 C-9.59530427 12.31078104 -4.55451372 5.91814059 0 0 Z " fill="#8FB395" transform="translate(207,221)"/>
<path d="M0 0 C0.33 0.66 0.66 1.32 1 2 C2.64363134 2.72159424 4.31050386 3.39351421 6 4 C5.34 5.32 4.68 6.64 4 8 C3.34 8 2.68 8 2 8 C1.67 8.66 1.34 9.32 1 10 C0.01 10 -0.98 10 -2 10 C-2.25 3.375 -2.25 3.375 0 0 Z " fill="#3F6F4F" transform="translate(306,119)"/>
<path d="M0 0 C5.44208234 0.34013015 8.93668198 3.70296528 13 7 C12.67 7.66 12.34 8.32 12 9 C11.443125 8.71125 10.88625 8.4225 10.3125 8.125 C7.91505355 6.9586747 5.48403061 5.9660119 3 5 C3 5.66 3 6.32 3 7 C2.34 6.67 1.68 6.34 1 6 C1 5.01 1 4.02 1 3 C0.67 2.01 0.34 1.02 0 0 Z " fill="#77A280" transform="translate(273,207)"/>
<path d="M0 0 C0.33 0.99 0.66 1.98 1 3 C0.54625 3.4125 0.0925 3.825 -0.375 4.25 C-2.05950374 6.06408095 -2.99265971 7.75285627 -4 10 C-6.475 9.01 -6.475 9.01 -9 8 C-8.07038578 6.84775972 -7.1309875 5.70340824 -6.1875 4.5625 C-5.66542969 3.92441406 -5.14335937 3.28632813 -4.60546875 2.62890625 C-3 1 -3 1 0 0 Z " fill="#436F52" transform="translate(145,154)"/>
<path d="M0 0 C2.0625 0.4375 2.0625 0.4375 4 1 C2.74057614 2.19959375 1.46704714 3.38439443 0.1875 4.5625 C-0.87404297 5.55443359 -0.87404297 5.55443359 -1.95703125 6.56640625 C-2.63121094 7.03949219 -3.30539062 7.51257813 -4 8 C-4.99 7.67 -5.98 7.34 -7 7 C-6.67 5.02 -6.34 3.04 -6 1 C-4.7934375 1.0309375 -4.7934375 1.0309375 -3.5625 1.0625 C-1.06645115 1.29633621 -1.06645115 1.29633621 0 0 Z " fill="#1F2E2A" transform="translate(331,344)"/>
<path d="M0 0 C0.33 0.66 0.66 1.32 1 2 C1.99 2.33 2.98 2.66 4 3 C3.07038578 4.15224028 2.1309875 5.29659176 1.1875 6.4375 C0.40439453 7.39462891 0.40439453 7.39462891 -0.39453125 8.37109375 C-2 10 -2 10 -5 11 C-5 7.09382567 -3.68215404 4.49370455 -2 1 C-1.34 0.67 -0.68 0.34 0 0 Z " fill="#293734" transform="translate(292,292)"/>
<path d="M0 0 C6.6 0 13.2 0 20 0 C20 0.66 20 1.32 20 2 C15.50832172 3.19600901 11.26730207 2.9185704 6.6875 2.5625 C5.57665039 2.48418945 5.57665039 2.48418945 4.44335938 2.40429688 C2.62847291 2.27549848 0.81416675 2.13856738 -1 2 C-0.67 1.34 -0.34 0.68 0 0 Z " fill="#5A635F" transform="translate(241,74)"/>
<path d="M0 0 C0.33 0.66 0.66 1.32 1 2 C3.02463255 2.65213292 3.02463255 2.65213292 5 3 C5 3.99 5 4.98 5 6 C1.61064804 6.77470902 -1.53230644 7.45627547 -5 7 C-6.8125 5 -6.8125 5 -8 3 C-7.13375 3.37125 -7.13375 3.37125 -6.25 3.75 C-5.5075 3.8325 -4.765 3.915 -4 4 C-1.72855926 2.14567913 -1.72855926 2.14567913 0 0 Z M1 3 C1.33 3.66 1.66 4.32 2 5 C2.66 4.67 3.32 4.34 4 4 C3.01 3.67 2.02 3.34 1 3 Z " fill="#547F60" transform="translate(350,151)"/>
<path d="M0 0 C3.14958831 3.42346555 3.56179109 6.44262737 4 11 C3.01 11.495 3.01 11.495 2 12 C1.90847656 11.40703125 1.81695312 10.8140625 1.72265625 10.203125 C0.82767887 7.47465343 -0.33906301 6.52874959 -2.5625 4.75 C-3.20316406 4.22921875 -3.84382813 3.7084375 -4.50390625 3.171875 C-4.99761719 2.78515625 -5.49132812 2.3984375 -6 2 C-3 1 -3 1 0 2 C0 1.34 0 0.68 0 0 Z " fill="#7DA987" transform="translate(356,325)"/>
<path d="M0 0 C1.65 0 3.3 0 5 0 C3.625 2 3.625 2 2 4 C1.34 4 0.68 4 0 4 C0 4.66 0 5.32 0 6 C-1.95927063 7.7143618 -3.95880212 9.38405168 -6 11 C-6.33 9.35 -6.66 7.7 -7 6 C-4.69 4.68 -2.38 3.36 0 2 C0 1.34 0 0.68 0 0 Z " fill="#77947D" transform="translate(157,151)"/>
<path d="M0 0 C-1.15093722 3.45281166 -2.3205993 4.38082163 -5.0625 6.6875 C-5.79597656 7.31011719 -6.52945312 7.93273437 -7.28515625 8.57421875 C-7.85105469 9.04472656 -8.41695313 9.51523437 -9 10 C-9.66 8.68 -10.32 7.36 -11 6 C-10.01 4.68 -9.02 3.36 -8 2 C-7.34 2.66 -6.68 3.32 -6 4 C-5.67 3.01 -5.34 2.02 -5 1 C-2 0 -2 0 0 0 Z " fill="#60846A" transform="translate(348,362)"/>
<path d="M0 0 C0.99 0.66 1.98 1.32 3 2 C2.44570312 2.40992188 1.89140625 2.81984375 1.3203125 3.2421875 C0.59585938 3.78101563 -0.12859375 4.31984375 -0.875 4.875 C-1.59429687 5.40867187 -2.31359375 5.94234375 -3.0546875 6.4921875 C-5.08252632 7.99873162 -5.08252632 7.99873162 -7 10 C-7.66 8.35 -8.32 6.7 -9 5 C-6.35261084 3.5393715 -5.10551666 3 -2 3 C-2 2.34 -2 1.68 -2 1 C-1.34 0.67 -0.68 0.34 0 0 Z " fill="#8CB090" transform="translate(148,326)"/>
<path d="M0 0 C0.33 0.66 0.66 1.32 1 2 C-0.59025991 5.10100683 -2.2996944 7.76931277 -5 10 C-5.66 10 -6.32 10 -7 10 C-7.66 11.32 -8.32 12.64 -9 14 C-9.33 13.01 -9.66 12.02 -10 11 C-6.7 7.37 -3.4 3.74 0 0 Z M-12 14 C-10 15 -10 15 -10 15 Z " fill="#303B37" transform="translate(161,168)"/>
<path d="M0 0 C0.66 0 1.32 0 2 0 C2.99 3.96 3.98 7.92 5 12 C4.34 12 3.68 12 3 12 C3 11.01 3 10.02 3 9 C2.01 9.33 1.02 9.66 0 10 C-1.125 6.6875 -1.125 6.6875 -2 3 C-1.34 2.01 -0.68 1.02 0 0 Z " fill="#293534" transform="translate(179,274)"/>
<path d="M0 0 C0.66 0 1.32 0 2 0 C2.6875 2.3125 2.6875 2.3125 3 5 C1.02405467 7.85414325 -2.02099259 9.30921201 -5 11 C-3.78065514 6.96678237 -2.44045073 3.45730521 0 0 Z " fill="#5B8369" transform="translate(124,179)"/>
<path d="M0 0 C0.66 0.33 1.32 0.66 2 1 C0.9375 3.4375 0.9375 3.4375 -1 6 C-4.5625 6.9375 -4.5625 6.9375 -8 7 C-8.66 6.34 -9.32 5.68 -10 5 C-8.38007835 4.13624104 -6.75388139 3.28424146 -5.125 2.4375 C-4.22007812 1.96183594 -3.31515625 1.48617188 -2.3828125 0.99609375 C-1.20332031 0.50302734 -1.20332031 0.50302734 0 0 Z " fill="#6B8D74" transform="translate(312,375)"/>
<path d="M0 0 C3 1 3 1 4.421875 3.21484375 C4.86015625 4.11332031 5.2984375 5.01179687 5.75 5.9375 C6.19859375 6.83339844 6.6471875 7.72929687 7.109375 8.65234375 C7.40328125 9.42707031 7.6971875 10.20179688 8 11 C7.67 11.66 7.34 12.32 7 13 C6.01 12.67 5.02 12.34 4 12 C2.64560332 9.29120665 2.93498549 6.99066732 3 4 C2.34 4 1.68 4 1 4 C1 3.34 1 2.68 1 2 C0.34 1.67 -0.32 1.34 -1 1 C-0.67 0.67 -0.34 0.34 0 0 Z " fill="#659275" transform="translate(344,199)"/>
<path d="M0 0 C2.93200474 2.85276137 5.64315404 5.65079784 8 9 C7.01 9.33 6.02 9.66 5 10 C4.01 8.68 3.02 7.36 2 6 C1.01 6.33 0.02 6.66 -1 7 C-1.33 5.02 -1.66 3.04 -2 1 C-1.34 0.67 -0.68 0.34 0 0 Z " fill="#212F2D" transform="translate(132,360)"/>
<path d="M0 0 C1.32 0 2.64 0 4 0 C5.37890625 1.6796875 5.37890625 1.6796875 6.5625 3.875 C8.25133929 6.96474532 8.95312021 7.96874681 12 10 C11.67 10.99 11.34 11.98 11 13 C11 12.34 11 11.68 11 11 C10.030625 10.731875 9.06125 10.46375 8.0625 10.1875 C7.051875 9.795625 6.04125 9.40375 5 9 C4 6 4 6 4 3 C2.68 2.67 1.36 2.34 0 2 C0 1.34 0 0.68 0 0 Z " fill="#5D8A6D" transform="translate(140,316)"/>
<path d="M0 0 C2.97 0.495 2.97 0.495 6 1 C5.34 2.98 4.68 4.96 4 7 C-1.75 8.125 -1.75 8.125 -4 7 C-4 6.34 -4 5.68 -4 5 C-2.68 5 -1.36 5 0 5 C0 4.01 0 3.02 0 2 C0 1.34 0 0.68 0 0 Z " fill="#457557" transform="translate(164,362)"/>
<path d="M0 0 C0.66 0.33 1.32 0.66 2 1 C1.36191406 1.69867188 0.72382813 2.39734375 0.06640625 3.1171875 C-0.75988281 4.02726562 -1.58617188 4.93734375 -2.4375 5.875 C-3.26121094 6.77992188 -4.08492188 7.68484375 -4.93359375 8.6171875 C-7.00907942 10.81137927 -7.00907942 10.81137927 -8 13 C-8.99 13 -9.98 13 -11 13 C-9.46356148 9.31930113 -7.21849055 7.01224796 -4.375 4.25 C-3.55773437 3.45078125 -2.74046875 2.6515625 -1.8984375 1.828125 C-0.95871094 0.92320313 -0.95871094 0.92320313 0 0 Z " fill="#5D6662" transform="translate(129,122)"/>
<path d="M0 0 C1.78016355 2.67024533 2.97163019 5.05030861 4.1875 8 C4.55230469 8.86625 4.91710937 9.7325 5.29296875 10.625 C6 13 6 13 5 16 C2.63746991 13.63746991 1.962152 11.68772729 0.8125 8.5625 C0.44769531 7.59441406 0.08289063 6.62632812 -0.29296875 5.62890625 C-1 3 -1 3 0 0 Z " fill="#68997C" transform="translate(363,198)"/>
<path d="M0 0 C0.66 0.33 1.32 0.66 2 1 C-0.3125 3.5 -0.3125 3.5 -3 6 C-3.99 6 -4.98 6 -6 6 C-6 6.99 -6 7.98 -6 9 C-8.475 8.01 -8.475 8.01 -11 7 C-7.53252172 4.22601737 -3.93597489 2.04087587 0 0 Z " fill="#2F3C39" transform="translate(325,394)"/>
<path d="M0 0 C0.66 0.66 1.32 1.32 2 2 C1.34 2 0.68 2 0 2 C0 1.34 0 0.68 0 0 Z M-2 1 C-1.34 1.33 -0.68 1.66 0 2 C0 2.99 0 3.98 0 5 C0.66 5.66 1.32 6.32 2 7 C-0.475 8.485 -0.475 8.485 -3 10 C-4.1875 7.75 -4.1875 7.75 -5 5 C-3.625 2.6875 -3.625 2.6875 -2 1 Z " fill="#18292A" transform="translate(285,297)"/>
<path d="M0 0 C0.66 0.33 1.32 0.66 2 1 C1 4 1 4 -0.875 5.1875 C-3 6 -3 6 -6 6 C-6.66 7.32 -7.32 8.64 -8 10 C-9.32 9.67 -10.64 9.34 -12 9 C-8.04 6.03 -4.08 3.06 0 0 Z " fill="#414C49" transform="translate(149,106)"/>
<path d="M0 0 C0.66 0.66 1.32 1.32 2 2 C1.67 3.11375 1.34 4.2275 1 5.375 C-0.088643 8.69459717 -0.088643 8.69459717 0 11 C-0.99 10.67 -1.98 10.34 -3 10 C-3.36923077 3.47692308 -3.36923077 3.47692308 -1.5 1.0625 C-1.005 0.711875 -0.51 0.36125 0 0 Z " fill="#6E9C80" transform="translate(154,276)"/>
<path d="M0 0 C2.875 -0.125 2.875 -0.125 6 0 C8 2 8 2 8.125 4.625 C8.08375 5.40875 8.0425 6.1925 8 7 C7.34 7 6.68 7 6 7 C6 5.68 6 4.36 6 3 C3.69 3 1.38 3 -1 3 C-0.67 2.01 -0.34 1.02 0 0 Z " fill="#709C82" transform="translate(178,186)"/>
<path d="M0 0 C0.66 0.33 1.32 0.66 2 1 C1.58578031 5.83256305 -0.46413986 7.82679218 -4 11 C-4.33 10.34 -4.66 9.68 -5 9 C-4.00390625 6.8359375 -4.00390625 6.8359375 -2.5625 4.375 C-2.08941406 3.55773437 -1.61632812 2.74046875 -1.12890625 1.8984375 C-0.75636719 1.27195313 -0.38382812 0.64546875 0 0 Z " fill="#2E3A39" transform="translate(97,162)"/>
<path d="M0 0 C2 3 2 3 1.64453125 5.2265625 C1.23267578 6.41378906 1.23267578 6.41378906 0.8125 7.625 C0.55082031 8.42164063 0.28914063 9.21828125 0.01953125 10.0390625 C-1 12 -1 12 -4 13 C-3.52343588 11.20763933 -3.04366502 9.41613103 -2.5625 7.625 C-2.29566406 6.62726563 -2.02882813 5.62953125 -1.75390625 4.6015625 C-1 2 -1 2 0 0 Z " fill="#7E9886" transform="translate(115,197)"/>
<path d="M0 0 C0.33 0.66 0.66 1.32 1 2 C1.66 2.33 2.32 2.66 3 3 C-2.75 8 -2.75 8 -5 8 C-5.33 6.68 -5.66 5.36 -6 4 C-4.35 3.67 -2.7 3.34 -1 3 C-0.67 2.01 -0.34 1.02 0 0 Z " fill="#6A8C74" transform="translate(169,141)"/>
<path d="M0 0 C0.66 0 1.32 0 2 0 C2 0.66 2 1.32 2 2 C2.99 1.67 3.98 1.34 5 1 C5 2.98 5 4.96 5 7 C5.99 7.33 6.98 7.66 8 8 C7.01 8.495 7.01 8.495 6 9 C5.67 9.99 5.34 10.98 5 12 C3.35 8.04 1.7 4.08 0 0 Z " fill="#3D4846" transform="translate(312,222)"/>
<path d="M0 0 C1.1875 3.0625 1.1875 3.0625 2 6 C-1.0831351 4.80100302 -4.06279492 3.52299523 -7 2 C-7 1.34 -7 0.68 -7 0 C-3.98968256 -0.93423645 -3.13349732 -1.04449911 0 0 Z " fill="#678D72" transform="translate(321,133)"/>
<path d="M0 0 C0 1.65 0 3.3 0 5 C-1.28745036 5.38922918 -2.58019597 5.76098036 -3.875 6.125 C-4.95394531 6.43824219 -4.95394531 6.43824219 -6.0546875 6.7578125 C-6.69664062 6.83773438 -7.33859375 6.91765625 -8 7 C-8.66 6.34 -9.32 5.68 -10 5 C-8.71186658 4.16121545 -7.41936744 3.32913217 -6.125 2.5 C-5.40570313 2.0359375 -4.68640625 1.571875 -3.9453125 1.09375 C-2 0 -2 0 0 0 Z " fill="#6A8871" transform="translate(324,369)"/>
<path d="M0 0 C0.625 1.875 0.625 1.875 1 4 C0.34 4.66 -0.32 5.32 -1 6 C-1 6.99 -1 7.98 -1 9 C-2.65 8.67 -4.3 8.34 -6 8 C-4.55746343 4.63408134 -2.66735273 2.48952921 0 0 Z " fill="#303C39" transform="translate(362,366)"/>
<path d="M0 0 C1.32 0.33 2.64 0.66 4 1 C0.87511433 3.52394612 -2.31314387 5.39701907 -6 7 C-6.66 6.67 -7.32 6.34 -8 6 C-5.60490662 3.10067643 -3.68754757 2.49831724 0 2 C0 1.34 0 0.68 0 0 Z " fill="#799880" transform="translate(189,130)"/>
<path d="M0 0 C0.33 0.99 0.66 1.98 1 3 C1.66 3.33 2.32 3.66 3 4 C0.6875 5.125 0.6875 5.125 -2 6 C-2.99 5.34 -3.98 4.68 -5 4 C-5 3.01 -5 2.02 -5 1 C-3.35 0.67 -1.7 0.34 0 0 Z " fill="#3F6F4F" transform="translate(323,128)"/>
<path d="M0 0 C0.66 0.66 1.32 1.32 2 2 C1.64017208 5.47833656 -0.01476336 8.17485555 -2 11 C-2.99 11.33 -3.98 11.66 -5 12 C-3.41037341 7.96479403 -1.71767682 3.98188718 0 0 Z " fill="#35413D" transform="translate(317,285)"/>
<path d="M0 0 C1.36363636 4.09090909 1.36363636 4.09090909 0 7 C-3.0625 8.75 -3.0625 8.75 -6 10 C-4.6302836 6.00499382 -2.74277578 3.19990508 0 0 Z " fill="#749179" transform="translate(135,163)"/>
<path d="M0 0 C-2.77280706 3.08089673 -5.06326356 4.68775452 -9 6 C-8.8125 4.1875 -8.8125 4.1875 -8 2 C-3.744 -1.248 -3.744 -1.248 0 0 Z " fill="#6A8A73" transform="translate(333,375)"/>
<path d="M0 0 C3 3.75 3 3.75 3 6 C2.01 6.33 1.02 6.66 0 7 C-1.32 5.35 -2.64 3.7 -4 2 C-2.68 1.34 -1.36 0.68 0 0 Z " fill="#3D6F50" transform="translate(159,356)"/>
<path d="M0 0 C0.66 0 1.32 0 2 0 C1.42365861 4.75481646 -0.55068521 7.97048212 -3 12 C-3.88336837 9.5332355 -4.1312406 8.36140628 -3.22265625 5.859375 C-2.83980469 5.16328125 -2.45695312 4.4671875 -2.0625 3.75 C-1.68222656 3.04359375 -1.30195313 2.3371875 -0.91015625 1.609375 C-0.60980469 1.07828125 -0.30945313 0.5471875 0 0 Z " fill="#729179" transform="translate(381,314)"/>
<path d="M0 0 C1.98 0.66 3.96 1.32 6 2 C6 3.32 6 4.64 6 6 C6.99 6 7.98 6 9 6 C8.34 7.32 7.68 8.64 7 10 C5.83043409 8.52312468 4.66441854 7.04343707 3.5 5.5625 C2.8503125 4.73878906 2.200625 3.91507813 1.53125 3.06640625 C0 1 0 1 0 0 Z " fill="#4F5857" transform="translate(304,212)"/>
<path d="M0 0 C0.66 0 1.32 0 2 0 C2 0.66 2 1.32 2 2 C2.66 2 3.32 2 4 2 C3.34 3.65 2.68 5.3 2 7 C1.01 7 0.02 7 -1 7 C-1 3 -1 3 0 0 Z " fill="#416F52" transform="translate(371,176)"/>
<path d="M0 0 C-3.82517513 2.39073445 -7.59665524 2.55966552 -12 3 C-11.67 2.01 -11.34 1.02 -11 0 C-7.01803543 -1.05404945 -4.01804691 -0.84098656 0 0 Z " fill="#89A28E" transform="translate(229,119)"/>
<path d="M0 0 C0.86625 0.556875 0.86625 0.556875 1.75 1.125 C-5 5.125 -5 5.125 -7.25 5.125 C-7 3.25 -7 3.25 -6.25 1.125 C-3.78477471 -0.74517091 -2.92889069 -1.13901305 0 0 Z " fill="#283633" transform="translate(344.25,404.875)"/>
<path d="M0 0 C0.66 0.66 1.32 1.32 2 2 C-0.78863007 3.39431504 -2.92078868 3.25660094 -6 3 C-6.66 2.01 -7.32 1.02 -8 0 C-4.67679974 -1.10773342 -3.30835256 -0.93312508 0 0 Z " fill="#527B5D" transform="translate(185,373)"/>
<path d="M0 0 C0.99 0.33 1.98 0.66 3 1 C0.69 3.97 -1.62 6.94 -4 10 C-4.33 9.01 -4.66 8.02 -5 7 C-4.00390625 5.17578125 -4.00390625 5.17578125 -2.5625 3.3125 C-2.08941406 2.68988281 -1.61632812 2.06726563 -1.12890625 1.42578125 C-0.75636719 0.95527344 -0.38382812 0.48476563 0 0 Z " fill="#09281B" transform="translate(332,303)"/>
<path d="M0 0 C0.99 0 1.98 0 3 0 C6.22265625 5.17578125 6.22265625 5.17578125 7 7 C6.67 7.99 6.34 8.98 6 10 C4.99723227 8.52270825 3.99785546 7.04311423 3 5.5625 C2.443125 4.73878906 1.88625 3.91507812 1.3125 3.06640625 C0 1 0 1 0 0 Z " fill="#89AB8F" transform="translate(200,286)"/>
<path d="M0 0 C4.875 2.75 4.875 2.75 6 5 C3.69 5.33 1.38 5.66 -1 6 C-1.33 5.34 -1.66 4.68 -2 4 C-1.34 4 -0.68 4 0 4 C0 2.68 0 1.36 0 0 Z " fill="#4F7059" transform="translate(288,217)"/>
<path d="M0 0 C0 1.32 0 2.64 0 4 C-1.32 4.33 -2.64 4.66 -4 5 C-4.66 3.35 -5.32 1.7 -6 0 C-3.50907189 -1.24546405 -2.58919267 -0.7767578 0 0 Z " fill="#69A47A" transform="translate(184,189)"/>
<path d="M0 0 C0.66 0.33 1.32 0.66 2 1 C1.5 2.875 1.5 2.875 0 5 C-2.65177645 5.98494554 -5.20547307 6.45912382 -8 7 C-5.4837822 4.39391727 -2.94865641 2.10618315 0 0 Z " fill="#74927A" transform="translate(168,132)"/>
<path d="M0 0 C0.66 0.33 1.32 0.66 2 1 C-1.65333143 3.63379708 -4.48521602 5.46884894 -9 6 C-9 5.34 -9 4.68 -9 4 C-7.54618103 3.30300448 -6.08677047 2.61766134 -4.625 1.9375 C-3.40683594 1.36322266 -3.40683594 1.36322266 -2.1640625 0.77734375 C-1.44992187 0.52082031 -0.73578125 0.26429688 0 0 Z " fill="#343F3C" transform="translate(286,321)"/>
<path d="M0 0 C1.98 0.99 1.98 0.99 4 2 C4.33 2.99 4.66 3.98 5 5 C5.66 5.33 6.32 5.66 7 6 C6.01 6.99 5.02 7.98 4 9 C2.68 6.03 1.36 3.06 0 0 Z " fill="#333D3C" transform="translate(84,319)"/>
<path d="M0 0 C4.03174806 0.27489191 5.56894631 0.53491576 8.375 3.5625 C8.91125 4.366875 9.4475 5.17125 10 6 C9.29875 5.71125 8.5975 5.4225 7.875 5.125 C4.94547497 3.97866412 1.99078347 2.97374346 -1 2 C-0.67 1.34 -0.34 0.68 0 0 Z " fill="#618D73" transform="translate(157,274)"/>
<path d="M0 0 C0.433125 0.45375 0.86625 0.9075 1.3125 1.375 C3.10798342 3.20024334 3.10798342 3.20024334 6 5 C3.525 6.485 3.525 6.485 1 8 C1 7.34 1 6.68 1 6 C0.34 6 -0.32 6 -1 6 C-0.67 4.02 -0.34 2.04 0 0 Z " fill="#021415" transform="translate(386,143)"/>
<path d="M0 0 C1.32 0.66 2.64 1.32 4 2 C1.6875 4.0625 1.6875 4.0625 -1 6 C-1.99 5.67 -2.98 5.34 -4 5 C-4 4.34 -4 3.68 -4 3 C-2 1.375 -2 1.375 0 0 Z " fill="#75937D" transform="translate(175,137)"/>
<path d="M0 0 C4.75 -0.125 4.75 -0.125 7 1 C7 2.65 7 4.3 7 6 C3.73539027 4.19587357 2.11070205 3.16605307 0 0 Z " fill="#6C9079" transform="translate(147,358)"/>
<path d="M0 0 C-3.51187196 2.40814077 -5.72656908 3.36629408 -10 3 C-10.33 2.34 -10.66 1.68 -11 1 C-3.57142857 -1.42857143 -3.57142857 -1.42857143 0 0 Z " fill="#79A284" transform="translate(242,204)"/>
<path d="M0 0 C1.31618998 0.78551657 2.62785228 1.5786237 3.9375 2.375 C4.66839844 2.81585938 5.39929688 3.25671875 6.15234375 3.7109375 C8 5 8 5 9 7 C6.83125748 6.49396008 5.00032373 6.00016187 3 5 C3 4.34 3 3.68 3 3 C2.01 3.33 1.02 3.66 0 4 C-0.33 3.34 -0.66 2.68 -1 2 C-0.67 1.34 -0.34 0.68 0 0 Z " fill="#363E3D" transform="translate(321,153)"/>
<path d="M0 0 C3.91211733 1.15585285 6.8745041 2.35534962 10 5 C8.3125 5.6875 8.3125 5.6875 6 6 C3.3125 4.75 3.3125 4.75 1 3 C0.67 2.01 0.34 1.02 0 0 Z " fill="#738E78" transform="translate(306,118)"/>
<path d="M0 0 C0.99 0.33 1.98 0.66 3 1 C2.67 1.99 2.34 2.98 2 4 C0.68 3.67 -0.64 3.34 -2 3 C-2.33 3.99 -2.66 4.98 -3 6 C-3.99 5.34 -4.98 4.68 -6 4 C-3.1875 1.9375 -3.1875 1.9375 0 0 Z " fill="#293533" transform="translate(338,386)"/>
<path d="M0 0 C1.67542976 0.28604898 3.34385343 0.61781233 5 1 C5 2.65 5 4.3 5 6 C1.83884224 4.63016497 1.0072908 4.0109362 -1 1 C-0.67 0.67 -0.34 0.34 0 0 Z " fill="#6A8E75" transform="translate(155,363)"/>
<path d="M0 0 C1 3 1 3 0.3125 5.5625 C-1.16086774 8.29875437 -2.13522966 8.94958421 -5 10 C-3.66511872 6.40608886 -2.03977277 3.24509304 0 0 Z " fill="#648C71" transform="translate(338,297)"/>
<path d="M0 0 C0.66 0 1.32 0 2 0 C5 4.38461538 5 4.38461538 5 7 C1.125 6.125 1.125 6.125 0 5 C-0.04063832 3.33382885 -0.042721 1.66611905 0 0 Z " fill="#2A3535" transform="translate(185,291)"/>
<path d="M0 0 C2.88437779 1.29299694 4.87219421 2.65941363 7 5 C6.34 5 5.68 5 5 5 C4.67 5.99 4.34 6.98 4 8 C0 3.375 0 3.375 0 0 Z " fill="#82A689" transform="translate(144,177)"/>
<path d="M0 0 C0.33 0.66 0.66 1.32 1 2 C1.66 2 2.32 2 3 2 C2.34 3.65 1.68 5.3 1 7 C0.01 6.34 -0.98 5.68 -2 5 C-1.67 4.34 -1.34 3.68 -1 3 C-1.66 2.67 -2.32 2.34 -3 2 C-2.01 1.34 -1.02 0.68 0 0 Z " fill="#263434" transform="translate(116,162)"/>
<path d="M0 0 C2.5 2.3125 2.5 2.3125 5 5 C5 5.99 5 6.98 5 8 C2.4636387 6.98545548 1.20648539 6.3146444 -0.3125 4 C-0.539375 3.34 -0.76625 2.68 -1 2 C-0.67 1.34 -0.34 0.68 0 0 Z " fill="#353F3F" transform="translate(387,140)"/>
<path d="M0 0 C-0.33 0.99 -0.66 1.98 -1 3 C-1.99 2.67 -2.98 2.34 -4 2 C-4.33 2.99 -4.66 3.98 -5 5 C-5.99 5.33 -6.98 5.66 -8 6 C-8.33 5.01 -8.66 4.02 -9 3 C-3.375 0 -3.375 0 0 0 Z " fill="#6F8F78" transform="translate(192,120)"/>
<path d="M0 0 C1.98 0.66 3.96 1.32 6 2 C5.34 3.65 4.68 5.3 4 7 C3.01 7 2.02 7 1 7 C0.67 4.69 0.34 2.38 0 0 Z " fill="#2B3937" transform="translate(312,86)"/>
<path d="M0 0 C0.66 0.33 1.32 0.66 2 1 C2 1.99 2 2.98 2 4 C2.66 4.33 3.32 4.66 4 5 C1.69 5 -0.62 5 -3 5 C-1.125 1.125 -1.125 1.125 0 0 Z " fill="#3F6D4F" transform="translate(194,383)"/>
<path d="M0 0 C0.99 0.33 1.98 0.66 3 1 C1.68 2.32 0.36 3.64 -1 5 C-2.32 4.34 -3.64 3.68 -5 3 C-2.6875 1.4375 -2.6875 1.4375 0 0 Z " fill="#384545" transform="translate(374,380)"/>
<path d="M0 0 C1.5625 1.25 1.5625 1.25 3 3 C2.6875 5.1875 2.6875 5.1875 2 7 C0.68 6.34 -0.64 5.68 -2 5 C-1.34 3.35 -0.68 1.7 0 0 Z " fill="#3F6C50" transform="translate(359,336)"/>
<path d="M0 0 C0.66 0 1.32 0 2 0 C2 0.99 2 1.98 2 3 C3.65 3 5.3 3 7 3 C6.34 4.65 5.68 6.3 5 8 C2.20127563 5.47211993 0.54226981 3.79588866 0 0 Z " fill="#313B3B" transform="translate(153,329)"/>
<path d="M0 0 C0.66 0 1.32 0 2 0 C3.60725635 3.21451269 3.05748185 6.43612536 3 10 C-0.00617269 6.99382731 0.40414684 4.17618402 0 0 Z " fill="#84AC8C" transform="translate(196,273)"/>
<path d="M0 0 C2.95183101 2.95183101 3.08663988 5.95511947 4 10 C2.68 9.34 1.36 8.68 0 8 C0 5.36 0 2.72 0 0 Z " fill="#74917C" transform="translate(384,196)"/>
<path d="M0 0 C0.66 0.33 1.32 0.66 2 1 C1.34 2.98 0.68 4.96 0 7 C-0.99 6.67 -1.98 6.34 -3 6 C-3.33 5.01 -3.66 4.02 -4 3 C-2.68 2.01 -1.36 1.02 0 0 Z " fill="#698A72" transform="translate(176,127)"/>
<path d="M0 0 C2.64 0 5.28 0 8 0 C7.01 1.485 7.01 1.485 6 3 C2.875 3.1875 2.875 3.1875 0 3 C0 2.01 0 1.02 0 0 Z " fill="#192522" transform="translate(282,410)"/>
<path d="M0 0 C0.66 0 1.32 0 2 0 C1.01 2.97 0.02 5.94 -1 9 C-1.99 8.34 -2.98 7.68 -4 7 C-3.34 5.68 -2.68 4.36 -2 3 C-1.34 3 -0.68 3 0 3 C0 2.01 0 1.02 0 0 Z " fill="#3C4B47" transform="translate(416,314)"/>
<path d="M0 0 C1.0013988 3.00419641 1.51421457 5.87709365 2 9 C0.68 8.01 -0.64 7.02 -2 6 C-1.125 1.125 -1.125 1.125 0 0 Z " fill="#4E735F" transform="translate(210,292)"/>
<path d="M0 0 C1.13643966 3.40931897 0.86747764 4.00335456 -0.4375 7.1875 C-0.72496094 7.90292969 -1.01242188 8.61835938 -1.30859375 9.35546875 C-1.53675781 9.89816406 -1.76492187 10.44085938 -2 11 C-3.25 9.4375 -3.25 9.4375 -4 7 C-2.93237266 4.42998985 -1.53455057 2.3469597 0 0 Z " fill="#5D8B6D" transform="translate(137,200)"/>
<path d="M0 0 C2.475 0.99 2.475 0.99 5 2 C3.35 3.65 1.7 5.3 0 7 C-1.04449911 3.86650268 -0.93423645 3.01031744 0 0 Z " fill="#313E3A" transform="translate(155,121)"/>
<path d="M0 0 C1.32 0.66 2.64 1.32 4 2 C2.625 3.5 2.625 3.5 1 5 C0.34 5 -0.32 5 -1 5 C-1.33 4.01 -1.66 3.02 -2 2 C-1.34 1.34 -0.68 0.68 0 0 Z " fill="#223030" transform="translate(149,377)"/>
<path d="M0 0 C0.33 0.99 0.66 1.98 1 3 C-0.8125 4.5625 -0.8125 4.5625 -3 6 C-3.99 5.67 -4.98 5.34 -6 5 C-4.02 3.35 -2.04 1.7 0 0 Z " fill="#66866F" transform="translate(340,356)"/>
<path d="M0 0 C2.64 0.33 5.28 0.66 8 1 C8 2.32 8 3.64 8 5 C4.62496331 3.8141763 2.35277269 2.72426311 0 0 Z " fill="#354240" transform="translate(179,355)"/>
<path d="M0 0 C0.66 0 1.32 0 2 0 C1.67 2.31 1.34 4.62 1 7 C0.01 6.67 -0.98 6.34 -2 6 C-1.49396008 3.83125748 -1.00016187 2.00032373 0 0 Z " fill="#6D8C76" transform="translate(389,290)"/>
<path d="M0 0 C0.33 0.66 0.66 1.32 1 2 C1.66 2 2.32 2 3 2 C3 5.3 3 8.6 3 12 C0.8008587 7.60171741 0.48144941 4.81449408 0 0 Z " fill="#8CA593" transform="translate(107,280)"/>
<path d="M0 0 C0.66 1.32 1.32 2.64 2 4 C0.03533587 5.06775224 -1.96855359 6.06553465 -4 7 C-4.66 6.67 -5.32 6.34 -6 6 C-4.625 4.5 -4.625 4.5 -3 3 C-2.34 3 -1.68 3 -1 3 C-0.67 2.01 -0.34 1.02 0 0 Z " fill="#3C6F4E" transform="translate(266,236)"/>
<path d="M0 0 C0.66 0 1.32 0 2 0 C2 4 2 4 0.625 5.75 C-1 7 -1 7 -3 7 C-1.125 1.125 -1.125 1.125 0 0 Z " fill="#76937E" transform="translate(124,179)"/>
<path d="M0 0 C0 0.99 0 1.98 0 3 C-2 4.6875 -2 4.6875 -4 6 C-4.33 4.68 -4.66 3.36 -5 2 C-3.35 1.34 -1.7 0.68 0 0 Z " fill="#7F9C86" transform="translate(146,166)"/>
<path d="M0 0 C0 3.10551666 -0.5393715 4.35261084 -2 7 C-3.32 6.67 -4.64 6.34 -6 6 C-4.02 4.02 -2.04 2.04 0 0 Z " fill="#6F8F76" transform="translate(142,155)"/>
<path d="M0 0 C2.1875 0.3125 2.1875 0.3125 4 1 C1.03 3.475 1.03 3.475 -2 6 C-2.33 5.01 -2.66 4.02 -3 3 C-1.75 1.4375 -1.75 1.4375 0 0 Z " fill="#2F3C37" transform="translate(321,352)"/>
<path d="M0 0 C0.99 0.33 1.98 0.66 3 1 C1.63016497 4.16115776 1.0109362 4.9927092 -2 7 C-2 6.01 -2 5.02 -2 4 C-1.34 4 -0.68 4 0 4 C0 2.68 0 1.36 0 0 Z " fill="#698671" transform="translate(358,348)"/>
<path d="M0 0 C0.99 0.33 1.98 0.66 3 1 C1.84826645 3.46800047 0.95216435 5.04783565 -1 7 C-1.625 5.1875 -1.625 5.1875 -2 3 C-1.34 2.01 -0.68 1.02 0 0 Z " fill="#64856D" transform="translate(365,339)"/>
<path d="M0 0 C2.625 0.9375 2.625 0.9375 5 2 C4.67 2.99 4.34 3.98 4 5 C1.53199953 3.84826645 -0.04783565 2.95216435 -2 1 C-1.34 0.67 -0.68 0.34 0 0 Z " fill="#679A77" transform="translate(202,338)"/>
<path d="M0 0 C2.56616632 3.84924948 2.55097676 6.4349304 3 11 C1.5 10 1.5 10 0 8 C-0.27345479 5.28153765 -0.13491285 2.74322801 0 0 Z " fill="#5D6966" transform="translate(304,240)"/>
<path d="M0 0 C0 3 0 3 -1.5 4.6875 C-1.995 5.120625 -2.49 5.55375 -3 6 C-3.99 5.34 -4.98 4.68 -6 4 C-4.02 2.68 -2.04 1.36 0 0 Z " fill="#416C4F" transform="translate(157,144)"/>
<path d="M0 0 C-0.99 0 -1.98 0 -3 0 C-3 0.66 -3 1.32 -3 2 C-5.60582371 2.93065133 -6.64198224 3.14917407 -9.25 2.0625 C-9.8275 1.711875 -10.405 1.36125 -11 1 C-3.57142857 -1.42857143 -3.57142857 -1.42857143 0 0 Z " fill="#84A18B" transform="translate(226,110)"/>
</svg>
